<svg width="111" height="147" viewBox="0 0 111 147" fill="none" xmlns="http://www.w3.org/2000/svg">
<path d="M93.4955 101.5C94.9955 89 107.104 92.5174 105.995 100.548C103.495 118.653 103.495 118.653 100.495 142" stroke="black" stroke-width="8" stroke-linecap="round"/>
<path d="M93.4955 101.5C94.9955 89 107.104 92.5174 105.995 100.548C103.495 118.653 103.495 118.653 100.495 142" stroke="#B3774D" stroke-width="4" stroke-linecap="round"/>
<path d="M47.4385 47.2939C51.2935 59.3736 52.1658 67.2028 46.0258 67.9447C36.7817 77.368 36.6603 70.2979 28.7891 56.7132C20.2989 40.0275 23.4288 30.8565 29.4877 28.9229C35.5467 26.9893 43.5836 35.2143 47.4385 47.2939Z" fill="#B3E6DD"/>
<path d="M50.7396 66.5201C49.9572 58.0234 46.1976 39.2432 37.4186 32.0955C26.4448 23.161 22.9231 36.3505 22.9661 38.8501C23.0875 45.9201 25.9488 51.0871 27.5496 54.5422C29.5325 58.8221 35.793 67.8376 38.2716 73.5235" stroke="black" stroke-width="2"/>
<path d="M28.1882 44.6328C37.1299 53.6229 41.4783 60.1917 36.3532 63.6534C32.4269 76.2563 29.093 70.0205 15.8907 61.5235C0.722637 50.5495 -0.676574 40.9607 3.83277 36.4757C8.3421 31.9906 19.2464 35.6427 28.1882 44.6328Z" fill="#B3E6DD"/>
<path d="M39.8978 60.2349C35.3249 53.0312 23.4107 38.035 12.3375 35.6803C-1.50393 32.7368 1.38017 46.0802 2.55885 48.2849C5.89267 54.5207 10.7963 57.8131 13.7972 60.1572C17.5145 63.0609 27.1987 68.2269 31.9985 72.1555" stroke="black" stroke-width="2"/>
<path d="M94.9362 88.187C93.9085 85.1964 91.2111 82.2213 87.8706 77.852L89.7169 72.0347C94.062 76.8948 98.8157 87.96 98.8157 87.96C98.8157 87.96 104.54 88.6428 102.273 92.2397C100.006 95.8366 95.5221 89.8919 94.9362 88.187Z" fill="black" stroke="black" stroke-width="2"/>
<mask id="path-8-outside-1_59_36" maskUnits="userSpaceOnUse" x="14.9955" y="110.5" width="20" height="20" fill="black">
<rect fill="white" x="14.9955" y="110.5" width="20" height="20"/>
<path d="M16.9955 128C21.4955 123 22.4955 121 23.9955 114.5L31.9955 122C31.2915 122.657 25.9955 127.5 16.9955 128Z"/>
</mask>
<path d="M16.9955 128C21.4955 123 22.4955 121 23.9955 114.5L31.9955 122C31.2915 122.657 25.9955 127.5 16.9955 128Z" fill="black"/>
<path d="M23.9955 114.5L25.3634 113.041L22.8282 110.664L22.0467 114.05L23.9955 114.5ZM16.9955 128L15.5089 126.662C14.9671 127.264 14.8419 128.134 15.1918 128.864C15.5417 129.595 16.2977 130.042 17.1065 129.997L16.9955 128ZM31.9955 122L33.3601 123.462L34.9232 122.003L33.3634 120.541L31.9955 122ZM23.9955 114.5L22.0467 114.05C21.3031 117.273 20.7222 119.192 19.8433 120.895C18.9656 122.596 17.7338 124.19 15.5089 126.662L16.9955 128L18.4821 129.338C20.7573 126.81 22.2754 124.904 23.3978 122.73C24.5188 120.558 25.1879 118.227 25.9443 114.95L23.9955 114.5ZM16.9955 128L17.1065 129.997C26.7916 129.459 32.5167 124.249 33.3601 123.462L31.9955 122L30.6309 120.538C30.0663 121.065 25.1995 125.541 16.8846 126.003L16.9955 128ZM31.9955 122L33.3634 120.541L25.3634 113.041L23.9955 114.5L22.6276 115.959L30.6276 123.459L31.9955 122Z" fill="black" mask="url(#path-8-outside-1_59_36)"/>
<path d="M41.0105 142C42.0105 139 46.5109 131 46.5109 125.5L52.0109 125C52.0109 131 49.5105 137.5 49.5105 137.5C49.5105 137.5 58.0109 138.5 57.0105 144C56.3117 147.842 40.4404 143.71 41.0105 142Z" fill="black" stroke="black" stroke-width="2"/>
<path d="M59.2179 134.941C59.8207 131.836 63.2464 123.321 62.5337 117.867L67.9225 116.658C68.7001 122.608 67.063 129.377 67.063 129.377C67.063 129.377 75.6214 129.267 75.3421 134.85C75.1471 138.75 58.8742 136.71 59.2179 134.941Z" fill="black" stroke="black" stroke-width="2"/>
<path d="M80.4713 56.8718C86.9758 62.1833 90.1081 70.4771 89.8197 79.6912C89.5311 88.9068 85.8145 98.985 78.693 107.706C71.5716 116.428 62.44 122.084 53.4682 124.21C44.4978 126.335 35.7452 124.924 29.2405 119.613C22.7357 114.301 19.6028 106.007 19.8913 96.7927C20.1799 87.5771 23.8965 77.4989 31.0179 68.7775C38.1394 60.056 47.271 54.3994 56.2428 52.2741C65.2134 50.1492 73.9665 51.5604 80.4713 56.8718Z" fill="#F5C73D" stroke="black" stroke-width="2"/>
<mask id="mask0_59_36" style="mask-type:alpha" maskUnits="userSpaceOnUse" x="18" y="50" width="73" height="77">
<path d="M80.4713 56.8718C86.9758 62.1833 90.1081 70.4771 89.8197 79.6912C89.5311 88.9068 85.8145 98.985 78.693 107.706C71.5716 116.428 62.44 122.084 53.4682 124.21C44.4978 126.335 35.7452 124.924 29.2405 119.613C22.7357 114.301 19.6028 106.007 19.8913 96.7927C20.1799 87.5771 23.8965 77.4989 31.0179 68.7775C38.1394 60.056 47.271 54.3994 56.2428 52.2741C65.2134 50.1492 73.9665 51.5604 80.4713 56.8718Z" fill="#F5C73D" stroke="black" stroke-width="2"/>
</mask>
<g mask="url(#mask0_59_36)">
<path d="M78.9955 114.787C48.7975 117.49 24.6391 93.839 17.9955 81" stroke="black" stroke-width="9"/>
<path d="M87.9955 92.8119C58.2925 95.1968 34.5302 74.3285 27.9955 63" stroke="black" stroke-width="9"/>
<path d="M90.9955 71.8863C66.1723 73.2282 51.9566 58.3739 46.4955 52" stroke="black" stroke-width="9"/>
</g>
<rect x="54.1974" y="74.5697" width="18.1563" height="23.7027" transform="rotate(25.1377 54.1974 74.5697)" fill="#40BFAA"/>
<path d="M70 81.5L73.9955 81.5L62.9955 103L59.4955 103.5L70 81.5Z" fill="#40BFAA"/>
<path d="M54.3596 74.2242L69.9955 81.5L74.9955 80L55.6892 71.3907L54.3596 74.2242Z" fill="white"/>
<path d="M75.4955 80C75.9955 80 55.4955 70.5 55.4955 70.5L52.9955 73.5C56.4955 75 68.9955 81 69.9955 81.5C70.9955 82 74.9955 80 75.4955 80Z" stroke="black" stroke-width="2"/>
<path d="M75.4955 80L63.9955 103C63.4955 103.5 61.4954 104 59.9955 103.886C59.3294 103.835 48.9955 98.1739 43.9955 95.5584L45.4955 92.5" stroke="black" stroke-width="2" stroke-linecap="round"/>
<circle cx="75.9955" cy="47" r="23" fill="#F5C73D" stroke="black" stroke-width="2"/>
<ellipse cx="75.4955" cy="45.5" rx="2.5" ry="3.5" fill="black"/>
<ellipse cx="93.4955" cy="44.5" rx="2.5" ry="3.5" fill="black"/>
<path d="M74.9955 36C79.3635 36 82.9955 39.7539 82.9955 44.5C82.9955 49.2461 79.3635 53 74.9955 53C70.6275 53 66.9955 49.2461 66.9955 44.5C66.9955 39.7539 70.6275 36 74.9955 36Z" stroke="black" stroke-width="2"/>
<path d="M95.4955 35C99.536 35 102.996 38.6981 102.996 43.5C102.996 48.3019 99.536 52 95.4955 52C91.4551 52 87.9955 48.3019 87.9955 43.5C87.9955 38.6981 91.4551 35 95.4955 35Z" stroke="black" stroke-width="2"/>
<path d="M83.4955 44C85.1349 43.2375 86.104 43.1334 87.9955 44" stroke="black" stroke-width="2"/>
<line x1="66.8299" y1="43.4908" x2="57.8299" y2="42.4908" stroke="black" stroke-width="3"/>
<path d="M78.9955 56.5C82.4955 60 87.9955 61 91.4955 55.5" stroke="black" stroke-width="2"/>
<path d="M59.4955 1C66.4729 1 71.9955 6.2198 71.9955 12.5C71.9955 18.7802 66.4729 24 59.4955 24C52.5181 24 46.9955 18.7802 46.9955 12.5C46.9955 6.2198 52.5181 1 59.4955 1Z" fill="#F0E9DB" stroke="black" stroke-width="2"/>
<path fill-rule="evenodd" clip-rule="evenodd" d="M62.9955 35.5C61.4955 38 60.707 39 58.6245 41.7551C57.3056 43.5 55.4955 45 52.4955 48C49.9955 48 43.0115 37.5405 52.4955 24.5C56.4955 19 65.4955 16 72.9955 17.5C76.4535 18.1916 77.8059 19.2911 78.9392 20.2126C79.5808 20.7342 80.1521 21.1988 80.9955 21.5C91.9955 19.5 96.9955 22.5 95.9955 34.5C94.4955 34.5 89.4955 33 86.9955 31.5C84.4955 30 80.968 25.8128 80.4955 26.5C74.9955 34.5 63.5955 34.5 62.9955 35.5Z" fill="#F0E9DB" stroke="black" stroke-width="2"/>
<path d="M59.8362 98.5997C57.3837 96.5147 48.8751 93.6018 43.6783 91.8008C40.123 87.4647 45.1612 81.4074 45.8252 77.9343C47.1505 74.8098 51.604 65.5639 54.4955 64.5C57.387 63.4361 59.4133 65.6107 59.8362 67.5C58.0708 69.1182 52.671 77.0136 51.3462 79.3738C50.0213 81.7339 49.4019 85.3752 48.4655 86.972C54.7982 88.5491 63.1225 95.7619 63.1225 95.7619C63.1225 95.7619 68.4992 92.5212 68.3751 97.4006C68.2511 102.28 61.2343 99.7883 59.8362 98.5997Z" fill="black" stroke="black" stroke-width="2"/>
</svg>
